<svg width="193" height="123" viewBox="0 0 193 123" fill="none" xmlns="http://www.w3.org/2000/svg">
<path d="M112.301 0C133.806 0 151.24 16.2187 151.24 36.2256C151.24 36.8197 151.223 37.4109 151.192 37.998C152.957 37.7567 154.763 37.6299 156.601 37.6299C176.703 37.6299 193 52.5918 193 71.0479C193 89.504 176.703 104.466 156.601 104.466C144.348 104.466 133.51 98.9081 126.913 90.3887C122.424 109.101 105.711 123 85.7773 123C64.8656 123 47.4979 107.704 44.0693 87.6016C43.6771 87.6106 43.2834 87.6162 42.8887 87.6162C19.2019 87.6161 0 71.2715 0 51.1094C0.000138661 30.9474 19.202 14.6026 42.8887 14.6025C55.5271 14.6025 66.888 19.2568 74.7373 26.6602C79.2476 11.2952 94.3552 0.000166478 112.301 0Z" fill="#F3A8B2"/>
</svg>
