        <svg width="200" height="150" viewBox="0 0 200 150" xmlns="http://www.w3.org/2000/svg">
            <!-- Основная часть корзины -->
            <path d="M40,50 L40,110 C40,120 50,130 60,130 L140,130 C150,130 160,120 160,110 L160,50 Z" fill="#ffb6c1" stroke="#ff69b4" stroke-width="3"/>

            <!-- Внутренняя часть (светлее) -->
            <path d="M45,55 L45,105 C45,113 52,120 60,120 L140,120 C148,120 155,113 155,105 L155,55 Z" fill="#ffebf0"/>

            <!-- Горизонтальные прутья -->
            <line x1="50" y1="65" x2="150" y2="65" stroke="#ff69b4" stroke-width="2"/>
            <line x1="50" y1="80" x2="150" y2="80" stroke="#ff69b4" stroke-width="2"/>
            <line x1="50" y1="95" x2="150" y2="95" stroke="#ff69b4" stroke-width="2"/>

            <!-- Ручка -->
            <path d="M70,50 C70,30 90,35 100,35 C110,35 130,30 130,50" fill="none" stroke="#ff69b4" stroke-width="6" stroke-linecap="round"/>
        </svg>
