<svg width="20" height="20" viewBox="0 0 20 20" fill="none" xmlns="http://www.w3.org/2000/svg">
<path d="M16.6668 17.5001V10.8334C16.6668 10.3914 16.4912 9.96746 16.1787 9.6549C15.8661 9.34234 15.4422 9.16675 15.0002 9.16675H5.00016C4.55814 9.16675 4.13421 9.34234 3.82165 9.6549C3.50909 9.96746 3.3335 10.3914 3.3335 10.8334V17.5001" stroke="#404040" stroke-width="1.66667" stroke-linecap="round" stroke-linejoin="round"/>
<path d="M3.3335 13.3333C3.3335 13.3333 3.75016 12.5 5.00016 12.5C6.25016 12.5 7.0835 14.1667 8.3335 14.1667C9.5835 14.1667 10.4168 12.5 11.6668 12.5C12.9168 12.5 13.7502 14.1667 15.0002 14.1667C16.2502 14.1667 16.6668 13.3333 16.6668 13.3333" stroke="#404040" stroke-width="1.66667" stroke-linecap="round" stroke-linejoin="round"/>
<path d="M1.6665 17.5H18.3332" stroke="#404040" stroke-width="1.66667" stroke-linecap="round" stroke-linejoin="round"/>
<path d="M5.8335 6.66675V9.16675" stroke="#404040" stroke-width="1.66667" stroke-linecap="round" stroke-linejoin="round"/>
<path d="M10 6.66675V9.16675" stroke="#404040" stroke-width="1.66667" stroke-linecap="round" stroke-linejoin="round"/>
<path d="M14.1665 6.66675V9.16675" stroke="#404040" stroke-width="1.66667" stroke-linecap="round" stroke-linejoin="round"/>
<path d="M5.8335 3.33325H5.84183" stroke="#404040" stroke-width="1.66667" stroke-linecap="round" stroke-linejoin="round"/>
<path d="M10 3.33325H10.0083" stroke="#404040" stroke-width="1.66667" stroke-linecap="round" stroke-linejoin="round"/>
<path d="M14.1665 3.33325H14.1748" stroke="#404040" stroke-width="1.66667" stroke-linecap="round" stroke-linejoin="round"/>
</svg>
