<svg width="20" height="20" viewBox="0 0 20 20" fill="none" xmlns="http://www.w3.org/2000/svg">
<path d="M5.8335 17.5H14.1668" stroke="#404040" stroke-width="1.66667" stroke-linecap="round" stroke-linejoin="round"/>
<path d="M10 17.5C11.9891 17.5 13.8968 16.7098 15.3033 15.3033C16.7098 13.8968 17.5 11.9891 17.5 10H2.5C2.5 11.9891 3.29018 13.8968 4.6967 15.3033C6.10322 16.7098 8.01088 17.5 10 17.5Z" stroke="#404040" stroke-width="1.66667" stroke-linecap="round" stroke-linejoin="round"/>
<path d="M9.48349 10.0001C8.97879 10.0048 8.49098 9.81847 8.11789 9.47855C7.7448 9.13863 7.51402 8.67022 7.47184 8.16727C7.42967 7.66432 7.57921 7.16401 7.89048 6.76671C8.20175 6.3694 8.65172 6.10447 9.15015 6.02506C9.07035 5.67191 9.08791 5.30373 9.20095 4.95978C9.31398 4.61583 9.51827 4.30902 9.792 4.07206C10.0657 3.83511 10.3987 3.67691 10.7553 3.61432C11.1119 3.55174 11.4788 3.58714 11.8168 3.71672C11.9648 3.48369 12.1595 3.28383 12.3886 3.12972C12.6176 2.97561 12.8761 2.87059 13.1477 2.82128C13.4194 2.77196 13.6983 2.77942 13.9669 2.84317C14.2355 2.90692 14.488 3.0256 14.7085 3.19172C15.0931 2.88941 15.5752 2.73856 16.0636 2.76772C16.5519 2.79688 17.0127 3.00402 17.3586 3.34995C17.7045 3.69588 17.9117 4.15661 17.9408 4.64496C17.97 5.13332 17.8191 5.61542 17.5168 6.00006C17.705 6.25 17.8319 6.5406 17.8873 6.8485C17.9428 7.1564 17.9252 7.47301 17.8361 7.7729C17.7469 8.07278 17.5887 8.34756 17.374 8.57516C17.1594 8.80277 16.8943 8.97684 16.6002 9.08339C16.6762 9.38333 16.6847 9.69641 16.6252 10.0001" stroke="#404040" stroke-width="1.66667" stroke-linecap="round" stroke-linejoin="round"/>
<path d="M10.8335 10.0001L14.1668 6.66675" stroke="#404040" stroke-width="1.66667" stroke-linecap="round" stroke-linejoin="round"/>
<path d="M9.08354 6.04164C8.62645 5.55436 8.03316 5.21609 7.38102 5.07091C6.72887 4.92573 6.04812 4.98038 5.42748 5.22773C4.80685 5.47508 4.27512 5.90367 3.90162 6.45762C3.52811 7.01158 3.33015 7.6652 3.33354 8.33331C3.33354 8.94164 3.50021 9.50831 3.78354 9.99997" stroke="#404040" stroke-width="1.66667" stroke-linecap="round" stroke-linejoin="round"/>
</svg>
