<svg width="20" height="20" viewBox="0 0 20 20" fill="none" xmlns="http://www.w3.org/2000/svg">
<path d="M8.33325 1.66675V3.33341" stroke="white" stroke-width="1.66667" stroke-linecap="round" stroke-linejoin="round"/>
<path d="M11.6667 1.66675V3.33341" stroke="white" stroke-width="1.66667" stroke-linecap="round" stroke-linejoin="round"/>
<path d="M13.3333 6.66675C13.5543 6.66675 13.7663 6.75455 13.9226 6.91083C14.0789 7.06711 14.1667 7.27907 14.1667 7.50008V14.1667C14.1667 15.0508 13.8155 15.8986 13.1904 16.5238C12.5652 17.1489 11.7174 17.5001 10.8333 17.5001H5.83333C4.94928 17.5001 4.10143 17.1489 3.47631 16.5238C2.85119 15.8986 2.5 15.0508 2.5 14.1667V7.50008C2.5 7.27907 2.5878 7.06711 2.74408 6.91083C2.90036 6.75455 3.11232 6.66675 3.33333 6.66675H15C15.8841 6.66675 16.7319 7.01794 17.357 7.64306C17.9821 8.26818 18.3333 9.11603 18.3333 10.0001C18.3333 10.8841 17.9821 11.732 17.357 12.3571C16.7319 12.9822 15.8841 13.3334 15 13.3334H14.1667" stroke="white" stroke-width="1.66667" stroke-linecap="round" stroke-linejoin="round"/>
<path d="M5 1.66675V3.33341" stroke="white" stroke-width="1.66667" stroke-linecap="round" stroke-linejoin="round"/>
</svg>
