<svg width="20" height="20" viewBox="0 0 20 20" fill="none" xmlns="http://www.w3.org/2000/svg">
<path d="M10.0001 1.66675C8.35191 1.66675 6.74074 2.15549 5.37033 3.07117C3.99992 3.98685 2.93182 5.28834 2.30109 6.81105C1.67036 8.33377 1.50533 10.0093 1.82687 11.6258C2.14842 13.2423 2.94209 14.7272 4.10753 15.8926C5.27297 17.0581 6.75782 17.8518 8.37433 18.1733C9.99084 18.4948 11.6664 18.3298 13.1891 17.6991C14.7118 17.0683 16.0133 16.0002 16.929 14.6298C17.8447 13.2594 18.3334 11.6483 18.3334 10.0001C17.7543 10.1784 17.1374 10.1955 16.5493 10.0495C15.9612 9.90346 15.424 9.59988 14.9955 9.17137C14.567 8.74287 14.2634 8.20567 14.1174 7.61753C13.9713 7.02939 13.9884 6.41257 14.1668 5.83341C13.5876 6.01175 12.9708 6.02882 12.3826 5.88281C11.7945 5.73679 11.2573 5.43321 10.8288 5.00471C10.4003 4.57621 10.0967 4.039 9.95069 3.45086C9.80468 2.86272 9.82175 2.24591 10.0001 1.66675Z" stroke="#404040" stroke-width="1.66667" stroke-linecap="round" stroke-linejoin="round"/>
<path d="M7.08325 7.08325V7.09159" stroke="#404040" stroke-width="1.66667" stroke-linecap="round" stroke-linejoin="round"/>
<path d="M13.3333 12.9167V12.9251" stroke="#404040" stroke-width="1.66667" stroke-linecap="round" stroke-linejoin="round"/>
<path d="M10 10V10.0083" stroke="#404040" stroke-width="1.66667" stroke-linecap="round" stroke-linejoin="round"/>
<path d="M9.16675 14.1667V14.1751" stroke="#404040" stroke-width="1.66667" stroke-linecap="round" stroke-linejoin="round"/>
<path d="M5.83325 11.6667V11.6751" stroke="#404040" stroke-width="1.66667" stroke-linecap="round" stroke-linejoin="round"/>
</svg>
